<svg width="310" height="120" viewBox="0 0 310 120" fill="none" xmlns="http://www.w3.org/2000/svg">
<path fill-rule="evenodd" clip-rule="evenodd" d="M228.421 0C225.812 0 223.525 0.93414 221.622 2.76143C219.745 4.56023 218.823 6.87473 218.823 9.59646C218.823 12.2053 219.757 14.4915 221.585 16.3949L221.603 16.4134C223.455 18.2648 225.755 19.1929 228.421 19.1929C231.087 19.1929 233.387 18.2648 235.239 16.4134C237.091 14.562 238.019 12.2624 238.019 9.59646C238.019 6.93522 237.094 4.63914 235.249 2.78941C233.451 0.918611 231.139 0 228.421 0ZM101.218 24.7859C95.1149 24.7859 89.5069 26.279 84.4212 29.2728C79.3533 32.1891 75.3176 36.1543 72.33 41.1545C69.3268 46.1136 67.8327 51.6605 67.8327 57.7633C67.8327 63.8034 69.3288 69.3479 72.3279 74.3686C75.3152 79.3697 79.3499 83.3676 84.4155 86.3508L84.4267 86.3574C89.5123 89.2828 95.1182 90.7408 101.218 90.7408C107.382 90.7408 112.991 89.284 118.016 86.3536L118.02 86.3508C123.086 83.3676 127.121 79.3697 130.108 74.3686C133.107 69.3479 134.603 63.8034 134.603 57.7633C134.603 51.6605 133.109 46.1136 130.106 41.1545C127.119 36.1554 123.084 32.1909 118.018 29.2748C112.994 26.2771 107.384 24.7859 101.218 24.7859ZM283.739 24.7859C279.669 24.7859 275.861 25.6645 272.333 27.4283L272.324 27.433C269.92 28.6592 267.79 30.2589 265.937 32.2246V27.659C265.937 26.959 265.37 26.3914 264.669 26.3914H251.822C251.122 26.3914 250.555 26.959 250.555 27.659V87.8676C250.555 88.5677 251.122 89.1352 251.822 89.1352H265.974C266.674 89.1352 267.242 88.5677 267.242 87.8676V54.1508C267.242 49.3733 268.572 45.9874 271.034 43.7568C273.694 41.4086 276.644 40.2659 279.925 40.2659C283.999 40.2659 287.017 41.6935 289.156 44.4856L289.167 44.4988C291.466 47.4188 292.609 50.7215 292.609 54.4519V87.8676C292.609 88.5677 293.176 89.1352 293.876 89.1352H308.028C308.728 89.1352 309.296 88.5677 309.296 87.8676V52.5452C309.296 46.7551 308.123 41.7422 305.714 37.5625C303.335 33.4346 300.199 30.2541 296.305 28.0599C292.432 25.8775 288.236 24.7859 283.739 24.7859ZM154.581 98.7179L154.578 98.7152C154.281 98.4861 153.899 98.4 153.533 98.4798C153.167 98.5597 152.855 98.7974 152.68 99.1292L146.65 110.617C146.365 111.161 146.51 111.83 146.995 112.207C150.131 114.646 153.774 116.55 157.911 117.928C162.066 119.313 166.518 120 171.259 120C177.396 120 183.138 118.723 188.469 116.162C193.822 113.59 198.114 109.861 201.321 104.984C204.625 100.061 206.25 94.1875 206.25 87.4239V27.659C206.25 26.959 205.682 26.3914 204.982 26.3914H192.436C191.736 26.3914 191.169 26.959 191.169 27.659V31.7579C189.054 29.993 186.66 28.5715 183.992 27.4927C180.412 25.9511 176.531 25.1873 172.363 25.1873C166.647 25.1873 161.397 26.6542 156.642 29.5909C151.908 32.5138 148.115 36.4482 145.27 41.3748L145.263 41.3865C142.474 46.3368 141.085 51.8045 141.085 57.7633C141.085 63.7221 142.474 69.1899 145.263 74.1402L145.27 74.1519C148.115 79.0784 151.908 83.0129 156.642 85.9357C161.397 88.8724 166.647 90.3394 172.363 90.3394C176.528 90.3394 180.408 89.6099 183.986 88.1366L183.992 88.1341L184.006 88.1284C186.617 87.0023 188.973 85.5717 191.068 83.8358V85.8184C191.068 91.5461 189.266 96.0879 185.727 99.5648L185.719 99.5727C182.187 103.104 177.415 104.921 171.259 104.921C167.097 104.921 163.43 104.027 160.226 102.268L160.209 102.259C158.551 101.381 157.136 100.49 156.136 99.819C155.637 99.4838 155.243 99.2045 154.976 99.0105C154.842 98.9135 154.741 98.838 154.673 98.7875C154.64 98.7623 154.615 98.7433 154.599 98.7311L154.581 98.7179ZM1.26761 26.3914C0.82952 26.3914 0.422485 26.6176 0.191148 26.9897C-0.0401887 27.3617 -0.0630321 27.8268 0.130736 28.2197L24.8446 78.3323L8.36704 111.474C8.21639 111.777 8.19314 112.127 8.30247 112.447C8.4118 112.768 8.64463 113.031 8.94912 113.178L21.1896 119.113C21.8149 119.416 22.5676 119.159 22.8773 118.537L67.8419 28.224C68.0376 27.8311 68.016 27.3649 67.7849 26.9917C67.5538 26.6185 67.1461 26.3914 66.7072 26.3914H51.6521C51.1704 26.3914 50.7304 26.6644 50.5164 27.0958L38.5746 51.1755L38.5733 51.178C37.4985 53.3273 36.4903 55.4106 35.5487 57.4279L35.5407 57.4454C35.0797 58.4735 34.6289 59.5546 34.1881 60.6886C33.7484 59.5573 33.2987 58.4786 32.8389 57.4527C31.9606 55.4267 30.9825 53.3362 29.9049 51.1813L18.1647 27.1035C17.9522 26.6678 17.51 26.3914 17.0253 26.3914H1.26761ZM221.295 26.3914C220.595 26.3914 220.027 26.959 220.027 27.659V87.8676C220.027 88.5677 220.595 89.1352 221.295 89.1352H235.447C236.147 89.1352 236.714 88.5677 236.714 87.8676V27.659C236.714 26.959 236.147 26.3914 235.447 26.3914H221.295ZM92.5508 42.6852C95.154 41.0741 98.033 40.2659 101.218 40.2659C104.403 40.2659 107.282 41.0741 109.885 42.6852L109.895 42.6911L109.904 42.6967C112.528 44.2585 114.58 46.3419 116.076 48.9596L116.08 48.9675L116.087 48.9791C117.636 51.5801 118.418 54.4977 118.418 57.7633C118.418 61.0289 117.636 63.9466 116.087 66.5475L116.076 66.567C114.579 69.1861 112.525 71.3059 109.895 72.9357C107.292 74.4827 104.409 75.2607 101.218 75.2607C97.958 75.2607 95.0447 74.4817 92.447 72.9395C89.883 71.3106 87.822 69.1875 86.254 66.5572C84.7695 63.9558 84.0179 61.0344 84.0179 57.7633C84.0179 54.4923 84.7696 51.5708 86.2541 48.9694C87.8182 46.3456 89.9063 44.2593 92.532 42.6967L92.5508 42.6852ZM159.406 48.9694C160.973 46.3405 163.031 44.2541 165.589 42.6935C168.197 41.1426 171.049 40.3663 174.169 40.3663C177.364 40.3663 180.211 41.146 182.743 42.6897C185.295 44.2455 187.318 46.3579 188.82 49.0489C188.826 49.0591 188.832 49.0693 188.838 49.0794C190.389 51.6843 191.169 54.5694 191.169 57.7633C191.169 61.0289 190.386 63.9466 188.838 66.5475L188.826 66.567C187.33 69.1848 185.279 71.2681 182.655 72.83L182.643 72.837C180.107 74.3831 177.292 75.1604 174.169 75.1604C170.975 75.1604 168.128 74.3806 165.595 72.837C163.036 71.2769 160.977 69.1911 159.409 66.5626C157.919 63.886 157.17 60.9607 157.17 57.7633C157.17 54.4923 157.922 51.5708 159.406 48.9694Z" fill="#171717"/>
</svg>
