<svg width="16" height="16" viewBox="0 0 16 16" fill="none" xmlns="http://www.w3.org/2000/svg">
<path d="M10.5988 13.5802C10.6502 13.6903 10.6026 13.8215 10.4906 13.869C9.28788 14.379 7.95541 14.5095 6.67319 14.2399C5.31898 13.9552 4.09399 13.2395 3.1824 12.2004C2.2708 11.1614 1.72186 9.85518 1.61809 8.47813C1.51433 7.10109 1.86134 5.72765 2.60698 4.56428C3.35261 3.40092 4.45657 2.5105 5.75288 2.02689C7.04919 1.54327 8.4678 1.49261 9.79545 1.8825C11.1231 2.27239 12.288 3.08178 13.1151 4.18897C13.8982 5.23731 14.3384 6.499 14.3789 7.80237C14.3826 7.92376 14.2832 8.02192 14.1615 8.02149L9.09389 8.00384C8.97218 8.00342 8.87657 7.90314 8.8469 7.78536C8.81871 7.67343 8.76856 7.56742 8.69859 7.47375C8.58438 7.32086 8.42352 7.2091 8.24019 7.15526C8.05686 7.10142 7.86097 7.10842 7.68197 7.1752C7.50296 7.24198 7.35052 7.36493 7.24756 7.52558C7.1446 7.68622 7.09668 7.87587 7.11101 8.06602C7.12534 8.25617 7.20114 8.43654 7.32702 8.58002C7.4529 8.7235 7.62205 8.82232 7.80905 8.86164C7.92362 8.88573 8.0411 8.88669 8.15475 8.86528C8.27435 8.84275 8.40568 8.88729 8.45712 8.99736L10.5988 13.5802Z" fill="black"/>
<path d="M14.6332 8.65968C15.0254 8.65968 15.2215 8.65968 15.351 8.79065C15.3623 8.80213 15.3757 8.81736 15.3856 8.83011C15.4985 8.97552 15.4748 9.15234 15.4273 9.50599C15.305 10.4172 14.9862 11.2948 14.4889 12.0766C13.9917 12.8585 13.3316 13.52 12.5574 14.0183C12.2569 14.2118 12.1067 14.3085 11.9267 14.2684C11.911 14.2649 11.8915 14.2594 11.8762 14.254C11.7023 14.1929 11.6188 14.0158 11.4518 13.6617L9.66363 9.86988C9.41713 9.3472 9.29389 9.08586 9.3996 8.89051C9.40942 8.87235 9.42052 8.8549 9.43281 8.8383C9.56494 8.65968 9.8544 8.65968 10.4333 8.65968H14.6332Z" fill="black"/>
</svg>
