<?xml version="1.0" encoding="utf-8"?>
<!-- Generator: Adobe Illustrator 27.5.0, SVG Export Plug-In . SVG Version: 6.00 Build 0)  -->
<svg version="1.1" xmlns="http://www.w3.org/2000/svg" xmlns:xlink="http://www.w3.org/1999/xlink" x="0px" y="0px"
	 viewBox="0 0 750 500" style="enable-background:new 0 0 750 500;" xml:space="preserve">
<g id="background">
	<rect x="0.002" y="-0.003" style="fill:#F7F5F5;" width="750" height="500"/>
</g>
<g id="objects">
	<g>
		<g>
			<path style="fill:#99D5CB;" d="M322.231,141.836c-1.775,0-3.69-1.981-4.227-3.772c-0.643-2.358-0.222-4.856,1.148-7.007
				c-2.008-1.095-4.472-1.362-6.27,0.111c-1.313,1.077-1.646,2.569-1.078,4.84c0.067,0.268-0.096,0.539-0.364,0.606
				c-0.267,0.065-0.539-0.096-0.606-0.364c-0.418-1.673-0.728-4.1,1.414-5.855c2.18-1.787,5.127-1.473,7.482-0.154
				c0.018-0.023,0.037-0.046,0.055-0.069c1.988-2.484,4.951-3.883,7.928-3.751c0.274,0.025,0.549,0.061,0.823,0.107
				c0.395-1.062,0.948-2.017,1.591-2.751c1.904-2.45,4.613-2.721,7.233-2.983c0.284-0.017,0.52,0.173,0.547,0.448
				c0.027,0.275-0.173,0.52-0.448,0.547c-2.522,0.252-4.903,0.49-6.563,2.624c-0.543,0.621-1.018,1.431-1.368,2.334
				c2.438,0.666,4.57,2.236,4.797,4.732c0.156,2.18-1.05,3.27-2.129,3.544c-1.462,0.373-2.977-0.456-3.685-2.013
				c-0.771-1.698-0.765-3.704-0.283-5.521c-0.196-0.031-0.392-0.055-0.585-0.072c-2.627-0.119-5.276,1.136-7.065,3.36
				c0.277,0.196,0.542,0.406,0.791,0.628c2.022,2.021,3.766,5.455,3.228,8.147c-0.523,1.967-1.685,2.272-2.332,2.282
				C322.256,141.835,322.244,141.836,322.231,141.836z M320,131.587c-1.222,1.914-1.6,4.128-1.035,6.201
				c0.456,1.521,2.104,3.104,3.287,3.047c0.648-0.01,1.11-0.518,1.375-1.509c0.457-2.292-1.172-5.424-2.94-7.192
				C320.47,131.941,320.24,131.758,320,131.587z M329.218,127.701c-0.44,1.624-0.464,3.418,0.207,4.895
				c0.588,1.294,1.722,1.665,2.528,1.458c0.739-0.188,1.49-0.942,1.379-2.494C333.149,129.557,331.278,128.262,329.218,127.701z"/>
		</g>
		<g>
			<path style="fill:#DCD8F0;" d="M660.378,262.368c-0.527,0-1.031-0.16-1.442-0.468c-0.796-0.721-1.174-1.522-1.16-2.412
				c0.034-2.187,2.441-4.28,3.939-5.56c-0.442-1.204-1.214-2.181-2.65-2.703c-2.186-0.982-4.964-0.784-7.457,0.479
				c0.13,0.188,0.256,0.381,0.378,0.577c1.669,3.002,1.646,5.821-0.048,7.757c-1.033,1.329-2.785,1.924-4.241,1.426
				c-1.256-0.432-2.006-1.565-2.006-3.034c0.119-2.764,1.735-5.311,4.444-7.035c-1.135-1.413-2.489-2.549-3.914-3.262
				c-1.404-0.703-1.786-0.715-3.542-0.464c-0.267,0.036-0.525-0.151-0.565-0.424c-0.039-0.273,0.151-0.527,0.425-0.566
				c1.898-0.271,2.507-0.252,4.13,0.56c1.589,0.794,3.091,2.064,4.34,3.65c2.797-1.465,5.963-1.701,8.433-0.589
				c1.667,0.605,2.587,1.709,3.121,3.038c0.099-0.062,0.192-0.12,0.285-0.179c0.968-0.607,1.881-1.18,3.137-1.599
				c0.427-0.142,0.904-0.21,1.367-0.276c0.438-0.063,0.851-0.121,1.191-0.235c0.262-0.087,0.545,0.055,0.633,0.316
				c0.087,0.262-0.055,0.545-0.316,0.633c-0.427,0.142-0.904,0.21-1.367,0.276c-0.438,0.063-0.851,0.121-1.191,0.235
				c-1.143,0.38-2.007,0.922-2.921,1.496c-0.164,0.102-0.329,0.206-0.498,0.311c0.233,0.889,0.349,1.84,0.435,2.789
				c0.002,0.232,0.011,0.436,0.021,0.652c0.044,1.025,0.1,2.302-0.63,3.274c-0.281,0.58-0.939,1.081-1.714,1.264
				C660.786,262.345,660.58,262.368,660.378,262.368z M662.016,254.988c-1.31,1.137-3.216,2.926-3.24,4.516
				c-0.009,0.599,0.251,1.131,0.796,1.626c0.416,0.309,0.926,0.255,1.19,0.193c0.482-0.114,0.902-0.427,1.097-0.814
				c0.563-0.763,0.518-1.796,0.478-2.708c-0.01-0.23-0.019-0.45-0.019-0.65C662.249,256.406,662.165,255.675,662.016,254.988z
				 M650.734,252.198c-2.467,1.547-3.94,3.821-4.044,6.253c0,1.016,0.484,1.776,1.33,2.066c1.06,0.361,2.352-0.095,3.146-1.115
				c2.006-2.295,0.638-5.389-0.043-6.613C650.999,252.588,650.869,252.391,650.734,252.198z"/>
		</g>
		<path style="fill:#DCD8F0;" d="M212.376,151.051c-6.231-3.832-5.805-9.267,0.95-12.078l68.892-28.662
			c6.755-2.811,9.477,0.178,6.048,6.641l-26.073,49.147c-3.429,6.463-11.333,8.616-17.566,4.783L212.376,151.051z"/>
		<g>
			<path style="fill:#F1E0D9;" d="M571.264,185.128c-3.697,0-7.163-1.43-9.759-4.026l-13.988-13.988
				c-2.597-2.596-4.026-6.062-4.026-9.759c0-3.697,1.43-7.163,4.026-9.759l13.986-13.988c2.597-2.596,6.063-4.026,9.76-4.026
				s7.163,1.43,9.76,4.026l13.988,13.988c2.597,2.596,4.026,6.062,4.026,9.759c0,3.697-1.43,7.163-4.026,9.759l-13.988,13.988
				C578.427,183.699,574.961,185.128,571.264,185.128z M571.263,130.581c-3.43,0-6.645,1.326-9.053,3.733l-13.986,13.988
				c-2.408,2.407-3.733,5.622-3.733,9.052c0,3.43,1.325,6.645,3.733,9.052l13.988,13.988c2.407,2.407,5.622,3.733,9.052,3.733
				s6.645-1.326,9.052-3.733l13.988-13.988c2.408-2.407,3.733-5.622,3.733-9.052c0-3.43-1.325-6.645-3.733-9.052l-13.988-13.988
				C577.907,131.907,574.692,130.581,571.263,130.581z"/>
		</g>
		<path style="fill:#AAD5CE;" d="M157.983,161.249c2.126,2.125,2.126,5.604,0,7.729l-5.745,5.745c-2.125,2.126-5.602,2.126-7.727,0
			l-5.745-5.745c-2.126-2.125-2.126-5.604,0-7.729l5.745-5.746c2.124-2.124,5.602-2.124,7.727,0L157.983,161.249z"/>
		<g>
			<path style="fill:#DCD8F0;" d="M690.95,355.026c0,2.261-1.834,4.095-4.094,4.095c-2.262,0-4.094-1.834-4.094-4.095
				c0-2.261,1.832-4.093,4.094-4.093C689.116,350.934,690.95,352.766,690.95,355.026z"/>
			<path style="fill:#DCD8F0;" d="M684.843,364.931c0,2.261-1.834,4.093-4.094,4.093c-2.262,0-4.094-1.832-4.094-4.093
				c0-2.262,1.832-4.094,4.094-4.094C683.009,360.837,684.843,362.669,684.843,364.931z"/>
			<path style="fill:#DCD8F0;" d="M688.737,364.931c0,2.261,1.832,4.093,4.094,4.093c2.26,0,4.094-1.832,4.094-4.093
				c0-2.262-1.834-4.094-4.094-4.094C690.569,360.837,688.737,362.669,688.737,364.931z"/>
		</g>
		<path style="fill:#AAD5CE;" d="M507.968,84.565c0,2.262-1.832,4.095-4.094,4.095c-2.26,0-4.094-1.833-4.094-4.095
			c0-2.26,1.834-4.093,4.094-4.093C506.136,80.473,507.968,82.306,507.968,84.565z"/>
		<path style="fill:#AAD5CE;" d="M501.86,94.471c0,2.26-1.832,4.093-4.094,4.093c-2.26,0-4.094-1.833-4.094-4.093
			c0-2.262,1.834-4.095,4.094-4.095C500.028,90.376,501.86,92.209,501.86,94.471z"/>
		<path style="fill:#AAD5CE;" d="M505.755,94.471c0,2.26,1.832,4.093,4.094,4.093c2.262,0,4.094-1.833,4.094-4.093
			c0-2.262-1.832-4.095-4.094-4.095C507.587,90.376,505.755,92.209,505.755,94.471z"/>
		<g>
			<path style="fill:#F1E0D9;" d="M231.743,139.467c-8.739,0-15.849-7.109-15.849-15.848c0-8.739,7.11-15.849,15.849-15.849
				c8.738,0,15.848,7.11,15.848,15.849C247.59,132.357,240.481,139.467,231.743,139.467z M231.743,108.771
				c-8.188,0-14.849,6.661-14.849,14.849c0,8.187,6.661,14.848,14.849,14.848c8.187,0,14.848-6.661,14.848-14.848
				C246.59,115.432,239.93,108.771,231.743,108.771z"/>
		</g>
		<g>
			<path style="fill:#F1E0D9;" d="M79.041,392.182c-10.514,0-19.067-8.554-19.067-19.067c0-10.514,8.554-19.067,19.067-19.067
				c10.513,0,19.066,8.554,19.066,19.067C98.108,383.628,89.555,392.182,79.041,392.182z M79.041,355.047
				c-9.962,0-18.067,8.105-18.067,18.067c0,9.962,8.105,18.067,18.067,18.067c9.962,0,18.066-8.105,18.066-18.067
				C97.108,363.152,89.003,355.047,79.041,355.047z"/>
		</g>
	</g>
	<g>
		<path style="fill:#AAD5CE;" d="M322.507,216.392c6.651,10.488,19.186,37.348,35.046,41.185c15.859,3.838,25.836,0,32.999-15.604
			c7.162-15.605,11.512-23.279,12.279-22.512c0.768,0.768,9.465,28.139,11.256,32.743c1.789,4.604,71.369,20.465,82.369,14.581
			c11-5.883,16.627-10.232,22.256-41.696c5.627-31.464,9.209-43.999,4.859-54.999c-4.348-10.999-6.906-14.836-18.674-21.999
			c-11.768-7.163-30.691-18.06-45.941-18.56c-9.729-0.319-45.637,10.118-60.475,27.513c-14.836,17.396-36.068,64.464-37.603,65.487
			c-10.232-11-12.023-13.559-12.023-13.559S320.46,212.811,322.507,216.392z"/>
		<path style="fill:#FF7E7D;" d="M432.931,143.061c2.728,5.286,7.334,10.232,16.543,8.696c9.209-1.535,17.627-13.168,13.982-20.227
			c-3.604-6.98-11.766-21.043-11.766-21.043c7.162-2.047,7.332-15.519-4.775-17.225c-5.287-15.689-17.906-37.859-45.363-24.729
			c-27.458,13.132-25.735,17.367-24.028,26.747c1.708,9.38,7.487,13.841,13.796,25.268
			C397.628,131.977,408.544,152.953,432.931,143.061z"/>
		<path style="fill:#FF7E7D;" d="M354.211,215.245c-4.398-4.912-7.274-8.958-7.274-8.958s-29.162,0.128-27.115,3.709
			c1.383,2.181,5.709,11.47,7.577,14.711C331.841,226.925,346.12,228.495,354.211,215.245z"/>
		<path style="fill:#F1E0D9;" d="M458.852,203.857c0,2.26-1.832,4.092-4.094,4.092H290.02c-2.261,0-4.093-1.832-4.093-4.092v-24.047
			c0-2.26,1.832-4.093,4.093-4.093h164.739c2.262,0,4.094,1.833,4.094,4.093V203.857z"/>
		<path style="fill:#151748;" d="M427.046,181.857v19.953c0,0,17.66,0,20.744,0c3.084,0,4.924-0.868,4.924-4.279
			c0-3.931,0-9.327,0-11.504c0-3.413-2.092-4.17-4.008-4.17C446.79,181.857,427.046,181.857,427.046,181.857z"/>
		<path style="fill:#7967CC;" d="M371.874,181.857v19.953c0,0-71.487,0-74.571,0c-3.084,0-4.924-0.868-4.924-4.279
			c0-3.931,0-9.327,0-11.504c0-3.413,2.091-4.17,4.007-4.17C298.301,181.857,371.874,181.857,371.874,181.857z"/>
		<rect x="371.196" y="181.857" style="fill:#5FB0A2;" width="56.016" height="19.953"/>
		<path style="fill:#FF7E7D;" d="M427.388,227.135c-1.535-3.325-1.918-7.29-3.836-8.824c-1.92-1.535-3.07-2.942-5.5-1.663
			c-2.43,1.278-5.5-0.256-7.035-2.815c-2.815,1.279-4.094,0.128-4.094,0.128c-2.813,1.535-6.139,2.175-9.08-2.941
			c-2.941-5.116,1.023-14.837,5.244-5.884c0.256-5.287,3.326-8.526,5.373-7.503c2.047,1.023,1.918,3.282,1.918,3.282
			c0.725-3.965,5.584-5.5,6.266,0.64c2.047-2.814,3.07-2.047,5.5,1.662c2.432,3.71,1.492,4.179,6.098,3.795
			c2.131-1.364,11.213-3.197,13.898-1.023c2.686,2.174,5.842,7.078,9.039,10.275C446.956,225.531,433.698,230.717,427.388,227.135z"
			/>
		<path style="fill:#FF7E7D;" d="M312.505,202.899c-1.855-3.866-6.648-5.569-7.423-0.62c-0.772,4.949,4.484,15.773,11.907,12.989
			c7.479,1.604,9.683,3.227,12.002,2.764c2.32-0.464,14.284,1.722,16.294-6.783c-5.412,0.154-7.112-0.619-7.112-0.619
			c-2.938-3.866-6.649-8.04-8.195-7.73c-1.547,0.309-1.237,2.473-1.237,2.473c-1.701-5.411-3.401-7.267-5.258-7.267
			c-1.854,0-3.092,3.092-3.092,3.092C318.844,196.25,314.051,192.849,312.505,202.899z"/>
		<g>
			<path d="M329.164,218.319c-1.167,0-2.174-0.241-3.168-0.478c-0.272-0.065-0.544-0.13-0.821-0.19
				c-0.739-0.161-1.542-0.249-2.391-0.341c-2.12-0.231-4.523-0.493-6.457-2.06c-3.74-3.031-4.161-9.78-4.32-12.32
				c-0.017-0.276,0.192-0.513,0.468-0.53c0.283-0.021,0.513,0.192,0.53,0.468c0.151,2.421,0.552,8.852,3.952,11.605
				c1.706,1.383,3.856,1.617,5.936,1.843c0.876,0.096,1.704,0.186,2.495,0.357c0.283,0.061,0.562,0.128,0.841,0.195
				c2.299,0.548,4.47,1.068,8.707-1.524c0.235-0.144,0.542-0.069,0.688,0.166c0.144,0.235,0.07,0.543-0.166,0.688
				C332.771,217.84,330.809,218.319,329.164,218.319z"/>
		</g>
		<g>
			<path d="M327.503,215.769c-0.057,0-0.114-0.01-0.171-0.03c-8.573-3.116-7.803-10.908-7.474-14.234l0.035-0.354
				c0.026-0.275,0.265-0.48,0.545-0.45c0.275,0.026,0.477,0.27,0.45,0.545l-0.035,0.357c-0.332,3.358-1.023,10.345,6.82,13.197
				c0.259,0.094,0.394,0.381,0.299,0.641C327.899,215.643,327.707,215.769,327.503,215.769z"/>
		</g>
		<g>
			<path d="M339.403,211.01c-0.464,0-0.958-0.083-1.576-0.416c-1.073-0.577-2.025-1.566-2.612-2.712
				c-0.126-0.246-0.029-0.547,0.217-0.673c0.246-0.127,0.546-0.029,0.673,0.217c0.49,0.957,1.311,1.812,2.196,2.288
				c0.653,0.354,1.06,0.317,1.675,0.262c0.26-0.023,0.54-0.047,0.862-0.047c0.276,0,0.5,0.224,0.5,0.5c0,0.276-0.224,0.5-0.5,0.5
				c-0.289,0-0.54,0.022-0.773,0.044C339.843,210.991,339.626,211.01,339.403,211.01z"/>
		</g>
		<g>
			<path d="M338.096,216.727c-0.589,0-1.147-0.07-1.669-0.211c-3.103-0.704-5.233-3.281-6.47-5.319
				c-0.701-1.132-0.933-2.345-1.157-3.518c-0.122-0.639-0.238-1.243-0.424-1.838c-0.083-0.264,0.064-0.544,0.327-0.627
				c0.264-0.083,0.544,0.064,0.627,0.327c0.204,0.65,0.331,1.311,0.453,1.95c0.217,1.133,0.421,2.204,1.027,3.183
				c1.139,1.876,3.078,4.241,5.858,4.871c1.151,0.311,2.504,0.22,4.035-0.261c0.265-0.083,0.544,0.064,0.627,0.327
				c0.082,0.264-0.064,0.544-0.327,0.627C339.965,216.564,338.993,216.727,338.096,216.727z"/>
		</g>
		<g>
			<path d="M431.279,214.363c-1.308,0-2.239-0.33-2.9-0.764c-1.352-0.888-2.003-2.547-1.742-4.439
				c0.537-3.894,5.488-4.126,10.277-4.351l0.936-0.045c0.303-0.017,0.512,0.199,0.524,0.475c0.014,0.276-0.198,0.51-0.474,0.524
				l-0.941,0.045c-4.582,0.215-8.91,0.418-9.334,3.489c-0.1,0.72-0.171,2.499,1.301,3.466c1.249,0.819,4.472,1.511,12.015-3.066
				c0.235-0.143,0.544-0.069,0.688,0.168c0.143,0.236,0.067,0.544-0.168,0.687C436.698,213.442,433.465,214.363,431.279,214.363z"/>
		</g>
		<g>
			<path d="M422.474,216.344c-0.366,0-0.72-0.045-1.063-0.134c-1.95-0.506-3.452-2.386-4.726-5.917
				c-0.881-2.445-1.429-7.912,0.617-10.104c0.189-0.201,0.506-0.212,0.706-0.024c0.202,0.189,0.213,0.505,0.024,0.707
				c-1.596,1.71-1.302,6.599-0.406,9.082c1.135,3.148,2.455,4.878,4.035,5.288c1.629,0.423,3.662-0.459,6.222-2.693
				c0.207-0.182,0.524-0.161,0.706,0.048c0.182,0.208,0.16,0.524-0.048,0.706C426.205,215.341,424.208,216.344,422.474,216.344z"/>
		</g>
		<g>
			<path d="M415.31,217.253c-0.917,0-1.752-0.277-2.503-0.831c-3.909-2.889-3.965-12.939-2.773-16.313
				c0.092-0.26,0.382-0.393,0.638-0.305c0.261,0.092,0.397,0.378,0.306,0.638c-1.057,2.992-1.011,12.638,2.425,15.175
				c1.517,1.123,3.586,0.732,6.143-1.163c0.222-0.164,0.536-0.119,0.699,0.104c0.165,0.222,0.118,0.535-0.103,0.699
				C418.346,216.587,416.73,217.253,415.31,217.253z"/>
		</g>
		<g>
			<path d="M408.304,214.656c-0.722,0-1.401-0.184-2.035-0.552c-2.975-1.727-3.938-7.132-3.938-9.48c0-0.276,0.224-0.5,0.5-0.5
				c0.276,0,0.5,0.224,0.5,0.5c0,2.074,0.866,7.122,3.439,8.615c1.116,0.647,2.461,0.528,3.998-0.351
				c0.237-0.137,0.544-0.055,0.683,0.186c0.137,0.24,0.054,0.545-0.187,0.682C410.215,214.356,409.226,214.656,408.304,214.656z"/>
		</g>
		<g>
			<path d="M478.636,234.362c-0.099,0-0.198-0.029-0.285-0.089c-0.377-0.262-1.427-0.816-2.755-1.518
				c-3.399-1.796-9.089-4.8-13.831-8.266c-2.656-1.941-4.6-3.573-6.161-4.884c-2.193-1.842-3.518-2.954-4.561-2.97
				c-0.276-0.004-0.496-0.232-0.492-0.508c0.005-0.276,0.226-0.463,0.508-0.492c1.399,0.023,2.746,1.153,5.19,3.205
				c1.55,1.301,3.478,2.921,6.107,4.842c4.684,3.423,10.333,6.407,13.708,8.189c1.464,0.773,2.431,1.284,2.858,1.58
				c0.227,0.158,0.283,0.469,0.126,0.696C478.949,234.287,478.794,234.362,478.636,234.362z"/>
		</g>
		<g>
			<path d="M475.865,232.623c-0.032,0-0.065-0.003-0.098-0.009c-0.271-0.054-0.447-0.316-0.394-0.587
				c1.555-7.882,9.071-31.737,12.281-41.924c0.787-2.5,1.346-4.272,1.542-4.934c0.078-0.264,0.359-0.416,0.621-0.337
				c0.266,0.079,0.416,0.357,0.338,0.622c-0.197,0.664-0.757,2.442-1.548,4.95c-3.204,10.171-10.709,33.989-12.254,41.817
				C476.308,232.458,476.099,232.623,475.865,232.623z"/>
		</g>
		<path style="fill:#151748;" d="M377.189,78.615c-2.749,6.693-2.291,16.618-0.832,17.5c4.86,2.942,10.868,1.752,21.954-2.17
			c11.084-3.922,22.51-16.2,22.51-16.2c0.684,9.55,4.266,12.791,6.31,16.03c2.047,3.24,5.117,0.342,7.846,2.559
			c2.729,2.216,6.041,8.547,7.406,9.059c1.365,0.512,3.336-3.6,2.313-9.229c3.242-2.219,7.324-0.866,8.689-0.014
			c1.705-10.915-2.721-26.251-11.246-33.242c-8.527-6.992-24.898-13.473-39.053-8.527C388.931,59.326,381.112,69.065,377.189,78.615
			z"/>
		<g>
			<path d="M409.516,128.207c-1.469,0-2.472-0.29-3.163-0.882c-1.287-1.103-1.26-3.005-1.221-5.639
				c0.007-0.468,0.014-0.961,0.014-1.477c0-4.803-1.492-7.489-4.561-8.211c-0.269-0.063-0.436-0.332-0.372-0.601
				c0.063-0.268,0.328-0.434,0.601-0.373c3.539,0.831,5.333,3.922,5.333,9.184c0,0.521-0.007,1.019-0.015,1.492
				c-0.034,2.361-0.059,4.067,0.872,4.864c0.854,0.732,2.674,0.832,5.721,0.313c0.268-0.043,0.53,0.136,0.577,0.409
				c0.046,0.272-0.137,0.531-0.409,0.577C411.555,128.091,410.442,128.207,409.516,128.207z"/>
		</g>
		<g>
			<path d="M415.322,132.968c-1.396,0-2.563-0.312-3.185-0.519c-0.262-0.087-0.403-0.37-0.316-0.632
				c0.088-0.262,0.372-0.401,0.633-0.316c1.015,0.337,3.645,0.987,6.149-0.288c1.918-0.977,3.336-2.88,4.216-5.656
				c0.083-0.264,0.362-0.411,0.628-0.326c0.263,0.084,0.409,0.364,0.325,0.628c-0.964,3.041-2.55,5.142-4.715,6.245
				C417.774,132.757,416.472,132.968,415.322,132.968z"/>
		</g>
		<g>
			<path d="M432.931,143.561c-0.159,0-0.316-0.077-0.413-0.219c-0.155-0.228-0.097-0.539,0.132-0.695l0.682-0.46
				c5.392-3.63,14.417-9.707,12.489-27.297c-0.03-0.275,0.168-0.521,0.442-0.552c0.268-0.028,0.521,0.167,0.552,0.442
				c1.994,18.192-7.711,24.726-12.926,28.236l-0.677,0.458C433.126,143.534,433.028,143.561,432.931,143.561z"/>
		</g>
		<path d="M418.202,110.377c-1.402,1.309,1.408,5.756,3.838,4.477C424.47,113.574,420.12,108.586,418.202,110.377z"/>
		<path d="M397.19,115.473c-1.402,1.309,1.408,5.756,3.838,4.477C403.458,118.67,399.11,113.682,397.19,115.473z"/>
		<path style="fill:#151748;" d="M408.19,106.281c-5.805-3.769,1.639-7.234,8.418-6.083c6.779,1.151,7.475,4.783,4.66,4.527
			c-2.813-0.256-7.289-0.512-9.08,0.512C410.397,106.261,409.481,107.119,408.19,106.281z"/>
		<path style="fill:#151748;" d="M388.69,115.114c1.197-1.287,4.07-5.543,7.75-4.583c2.939,0.767-1.023-4.675-5.221-4.163
			c-1.982,0.241-4.006,2.286-4.695,5.413C386.144,113.502,388.358,115.473,388.69,115.114z"/>
		<g>
			<path d="M447.66,158.877c-6.559,0-13.094-2.47-16.615-8.751c-0.135-0.241-0.049-0.546,0.192-0.681
				c0.239-0.135,0.545-0.05,0.681,0.191c4.907,8.753,16.102,9.649,24.427,6.776c7.797-2.69,16.285-9.814,14.549-21.036
				c-0.042-0.273,0.145-0.529,0.418-0.571c0.268-0.041,0.528,0.146,0.57,0.418c1.83,11.832-7.05,19.319-15.211,22.135
				C453.874,158.324,450.764,158.877,447.66,158.877z"/>
		</g>
		<g>
			<path d="M368.637,230.364c-0.118,0-0.235-0.041-0.331-0.125c-0.294-0.259-7.219-6.369-8.6-8.267
				c-0.163-0.223-0.113-0.536,0.11-0.698c0.222-0.162,0.536-0.113,0.698,0.11c1.316,1.809,8.381,8.042,8.453,8.105
				c0.207,0.183,0.227,0.498,0.044,0.705C368.914,230.307,368.775,230.364,368.637,230.364z"/>
		</g>
		<g>
			<path d="M441.97,250.019c-0.112,0-0.226-0.038-0.318-0.115c-2.94-2.429-13.149-17.713-14.739-22.615
				c-0.085-0.263,0.059-0.545,0.321-0.63c0.263-0.084,0.545,0.059,0.63,0.321c1.512,4.661,11.632,19.844,14.425,22.153
				c0.213,0.176,0.243,0.491,0.067,0.704C442.256,249.956,442.113,250.019,441.97,250.019z"/>
		</g>
	</g>
	<g>
		<path style="fill:#F1E0D9;" d="M505.892,431.114V260.658c0-12.433-10.078-22.511-22.51-22.511H263.387
			c-12.433,0-22.512,10.078-22.512,22.511v170.456H505.892z"/>
		<g>
			<path style="fill:#54478D;" d="M452.007,380.123c0,13.866-11.24,25.108-25.107,25.108c-13.867,0-25.107-11.241-25.107-25.108
				c0-13.866,11.24-25.106,25.107-25.106C440.767,355.017,452.007,366.257,452.007,380.123z"/>
			<path style="fill:#7967CC;" d="M441.433,380.123c0,8.026-6.506,14.533-14.533,14.533c-8.027,0-14.535-6.507-14.535-14.533
				c0-8.026,6.508-14.532,14.535-14.532C434.927,365.591,441.433,372.097,441.433,380.123z"/>
		</g>
		<g>
			<path style="fill:#AAD5CE;" d="M381.979,397.654c0,5.086-4.122,9.209-9.21,9.209h-85c-5.086,0-9.209-4.123-9.209-9.209v-34.162
				c0-5.087,4.123-9.209,9.209-9.209h85c5.087,0,9.21,4.122,9.21,9.209V397.654z"/>
			<path style="fill:#F1EFEF;" d="M297.216,365.358c0,2.522-2.045,4.566-4.567,4.566c-2.522,0-4.566-2.044-4.566-4.566
				c0-2.523,2.044-4.567,4.566-4.567C295.171,360.791,297.216,362.835,297.216,365.358z"/>
			<path style="fill:#F1EFEF;" d="M345.729,366.855c0,1.695-1.374,3.069-3.07,3.069h-35.502c-1.695,0-3.069-1.374-3.069-3.069
				v-2.995c0-1.695,1.374-3.069,3.069-3.069h35.502c1.696,0,3.07,1.374,3.07,3.069V366.855z"/>
			<path style="fill:#54478D;" d="M297.216,381.023c0,2.522-2.045,4.566-4.567,4.566c-2.522,0-4.566-2.044-4.566-4.566
				c0-2.523,2.044-4.567,4.566-4.567C295.171,376.456,297.216,378.5,297.216,381.023z"/>
			<path style="fill:#54478D;" d="M354.417,382.521c0,1.695-1.374,3.069-3.07,3.069h-44.191c-1.695,0-3.069-1.374-3.069-3.069
				v-2.995c0-1.695,1.374-3.069,3.069-3.069h44.191c1.696,0,3.07,1.374,3.07,3.069V382.521z"/>
			<path style="fill:#151748;" d="M297.216,396.689c0,2.522-2.045,4.567-4.567,4.567c-2.522,0-4.566-2.045-4.566-4.567
				c0-2.523,2.044-4.567,4.566-4.567C295.171,392.121,297.216,394.166,297.216,396.689z"/>
			<path style="fill:#151748;" d="M369.433,398.185c0,1.695-1.374,3.07-3.07,3.07h-59.206c-1.695,0-3.069-1.375-3.069-3.07v-2.994
				c0-1.696,1.374-3.07,3.069-3.07h59.206c1.696,0,3.07,1.374,3.07,3.07V398.185z"/>
		</g>
		<g>
			<path style="fill:#151748;" d="M396.142,313.249h-58.246l-5.636,9.761c-4.189,7.255-0.763,13.192,7.617,13.192h54.282
				c8.381,0,11.807-5.938,7.617-13.192L396.142,313.249z"/>
			<polygon style="fill:#54478D;" points="337.172,314.502 396.866,314.502 388.601,300.185 345.438,300.185 			"/>
			<polygon style="fill:#AAD5CE;" points="344.394,301.994 389.644,301.994 379.226,283.949 354.812,283.949 			"/>
			<path style="fill:#F1EFEF;" d="M381.026,287.068l-6.39-11.069c-4.189-7.257-11.045-7.257-15.234,0l-6.391,11.069H381.026z"/>
		</g>
	</g>
	<g>
		<path style="fill:#151748;" d="M529.712,241.461c-2.303-8.697-1.107-18.93,18.334-27.969c19.441-9.038,56.959-5.115,64.121,24.729
			c7.162,29.845-0.682,45.021,13.814,63.781c14.496,18.76,41.27,40.588,18.076,66.34c-39.906,28.139-104.539-4.264-110.338-19.953
			c-5.799-15.689,3.41-40.758,16.713-61.734C563.735,265.678,532.183,254.933,529.712,241.461z"/>
		<path style="fill:#FF7E7D;" d="M563.733,308.227c-0.256-3.326-1.023-12.023-1.023-12.023
			c-18.93,4.604-31.465-10.488-30.953-26.092c0.512-15.604,0.512-16.628-2.045-28.65c-2.559-12.023,20.209-26.605,42.463-24.558
			c22.256,2.046,19.271,13.387,15.947,35.13c-0.512,5.884,2.813,14.923,2.813,14.923c0.77,12.877,0.426,41.015,0.426,41.015
			S576.269,316.668,563.733,308.227z"/>
		<path style="fill:#DCD8F0;" d="M553.075,316.753c5.031-0.597,11-1.535,11-1.535s-0.768-7.248-0.938-8.441
			c-0.172-1.193,0.598-1.364,2.301-0.853c1.705,0.512,13.131,2.813,23.961-1.705c2.814-0.938,2.816-0.767,3.242,2.643
			c0.426,3.41,1.105,6.48,1.105,6.48s3.24,1.705,12.023,2.473C595.026,328.605,563.136,338.24,553.075,316.753z"/>
		<path style="fill:#FF7E7D;" d="M591.362,261.586c3.58-3.753,11.938-6.141,14.836,1.704c2.898,7.845-9.039,18.758-17.225,10.402
			C590.86,268.029,591.362,261.586,591.362,261.586z"/>
		<path style="fill:#151748;" d="M530.14,243.166c3.238-6.82,21.656-16.882,30.865-18.076c3.924,23.363,9.807,37.177,22.598,34.278
			c2.898,12.449,3.838,12.277,5.713,11.597c1.875-0.682,2.898-7.418,3.41-10.829c5.799-4.265,8.867-10.83,8.185-20.551
			c-0.682-9.721-8.867-30.527-35.982-25.581C537.813,218.95,526.218,228.67,530.14,243.166z"/>
		<g>
			<path d="M549.665,274.107c-0.009,0-0.018,0-0.027-0.001c-3.384-0.185-5.279-0.857-6.148-2.184
				c-0.688-1.051-0.69-2.454-0.007-4.289c0.286-0.767,0.571-1.443,0.836-2.071c1.216-2.882,1.949-4.621,0.187-9.434
				c-2.305-6.294-7.933-6.7-10.249-6.58c-0.316,0.018-0.511-0.199-0.524-0.474c-0.015-0.276,0.197-0.511,0.474-0.525
				c2.537-0.13,8.705,0.318,11.239,7.235c1.897,5.182,1.061,7.165-0.204,10.166c-0.26,0.616-0.54,1.28-0.82,2.032
				c-0.565,1.516-0.596,2.626-0.095,3.392c0.668,1.02,2.373,1.57,5.366,1.733c0.275,0.015,0.487,0.251,0.472,0.526
				C550.149,273.901,549.929,274.107,549.665,274.107z"/>
		</g>
		<g>
			<path d="M565.651,254.239c-0.099,0-0.197-0.028-0.284-0.089c-7.203-4.977-9.713-3.69-11.096-2.013
				c-0.176,0.214-0.491,0.244-0.703,0.068c-0.214-0.175-0.244-0.49-0.068-0.703c2.455-2.985,6.291-2.421,12.435,1.825
				c0.228,0.157,0.284,0.468,0.127,0.695C565.966,254.164,565.81,254.239,565.651,254.239z"/>
		</g>
		<g>
			<path d="M550.757,279.694c-1.359,0-2.717-0.462-4.253-1.203c-0.248-0.12-0.353-0.419-0.232-0.668
				c0.12-0.249,0.419-0.353,0.668-0.232c3.264,1.577,5.778,2.194,10.797-3.339c0.187-0.203,0.503-0.219,0.706-0.034
				c0.204,0.185,0.22,0.502,0.034,0.706C555.333,278.391,553.043,279.694,550.757,279.694z"/>
		</g>
		<g>
			<path d="M562.71,296.703c-0.209,0-0.404-0.133-0.475-0.342c-0.087-0.262,0.055-0.545,0.316-0.633
				c1.944-0.647,19.142-6.692,24.123-19.278c0.102-0.257,0.396-0.384,0.648-0.281c0.257,0.102,0.383,0.392,0.281,0.648
				c-5.148,13.008-22.747,19.197-24.736,19.86C562.815,296.695,562.763,296.703,562.71,296.703z"/>
		</g>
		<path d="M561.815,261.605c-1.646,0.199-0.512,4.988,1.854,4.541C566.036,265.698,563.925,261.35,561.815,261.605z"/>
		<g>
			<path d="M561.367,262.565c0,0-1.288-1.545-1.931-2.382c-0.168-0.219-0.127-0.533,0.092-0.701
				c0.218-0.168,0.531-0.128,0.701,0.092c0.635,0.825,1.905,2.351,1.905,2.351L561.367,262.565z"/>
		</g>
		<path d="M538.727,258.344c-1.646,0.2-0.51,4.988,1.856,4.541C542.95,262.436,540.839,258.088,538.727,258.344z"/>
		<g>
			<path d="M538.281,259.304c0,0-1.287-1.545-1.933-2.381c-0.168-0.219-0.128-0.533,0.091-0.702c0.22-0.168,0.533-0.127,0.702,0.091
				c0.636,0.826,1.907,2.352,1.907,2.352L538.281,259.304z"/>
		</g>
		<path style="fill:#FF7E7D;" d="M455.954,351.714c-0.598-2.218-1.621-5.713-1.621-5.713c-2.303,1.278-4.52,0.768-5.627-0.171
			c-4.178,1.194-7.248,0.597-10.146-3.326c-4.436,2.644-11.428-0.938-12.109-4.092c-0.682-3.155,5.799-1.108,9.635,0.511
			c-1.277-6.48,0.172-8.015,1.279-7.759c1.109,0.256,3.24,0.342,6.055,6.65c-0.767-7.333,2.131-6.651,3.922-4.69
			c1.791,1.961,3.922,6.992,3.922,6.992l2.219-0.598c-1.195-3.666-1.621-7.161,0-7.844c1.619-0.683,3.836-0.426,6.734,6.906
			c5.373-1.109,11.086-3.667,13.219-0.938c2.131,2.728,4.348,9.38,4.348,9.38S474.542,359.899,455.954,351.714z"/>
		<path style="fill:#5FB0A2;" d="M554.354,316.498c-5.969,1.194-14.836-0.851-21.828,1.877
			c-6.992,2.728-12.791,10.742-20.977,30.354c-8.185,19.612-15.689,33.426-15.689,33.426c-4.604-10.403-15.859-32.914-17.055-35.301
			c-1.193-2.388-2.047,1.875-8.355,3.922c-6.311,2.046-13.815,1.194-15.178,0.171c-1.363-1.023,0,4.434,3.752,14.325
			c3.752,9.892,12.447,37.007,18.418,47.068c5.969,10.062,23.877,19.954,36.836,2.218c12.961-17.737,20.635-39.225,20.635-39.225
			l10.914,55.083h77.084l0.682-45.532c0,0,18.76,36.664,13.984,45.532c11.426,0,31.379,0.341,31.379,0.341s2.416-8.918-1.512-19.721
			c-4.6-12.647-10.42-28.343-14.006-36.897c-6.652-15.861-15.008-37.349-19.953-43.488c-4.947-6.14-8.039-10.976-27.969-15.178
			c-1.621-0.342-1.963,1.02-7.846,4.006c-5.883,2.986-27.209,8.316-39.139,0.513C556.489,318.656,555.378,316.413,554.354,316.498z"
			/>
		<path style="fill:#151748;" d="M575.501,319.012c0,1.154-0.727,2.09-1.621,2.09c-0.894,0-1.619-0.936-1.619-2.09
			c0-1.152,0.725-2.088,1.619-2.088C574.774,316.924,575.501,317.859,575.501,319.012z"/>
		<g>
			<path d="M567.382,319.034c-1.227,0-2.454-1.173-3.747-3.58c-0.131-0.243-0.039-0.546,0.204-0.677
				c0.241-0.129,0.546-0.04,0.677,0.204c1.451,2.7,2.456,3.049,2.906,3.052c0.785-0.035,1.424-1.147,1.82-2.074
				c1.264-2.946,3.198-7.668,3.218-7.715c0.105-0.256,0.401-0.377,0.652-0.273c0.256,0.104,0.378,0.396,0.273,0.652
				c-0.019,0.048-1.958,4.776-3.224,7.73c-0.742,1.732-1.649,2.633-2.696,2.679C567.438,319.033,567.41,319.034,567.382,319.034z"/>
		</g>
		<g>
			<path d="M582.042,320.003c-0.204,0-0.407-0.008-0.61-0.023c-3.994-0.307-5.268-4.795-6.392-8.755
				c-0.231-0.815-0.456-1.606-0.697-2.328c-0.087-0.262,0.055-0.545,0.316-0.633c0.263-0.087,0.545,0.054,0.633,0.316
				c0.245,0.735,0.474,1.541,0.71,2.372c1.034,3.646,2.208,7.777,5.506,8.031c4.449,0.336,9.236-3.646,11.353-6.056
				c0.184-0.207,0.5-0.228,0.706-0.046c0.207,0.183,0.227,0.499,0.046,0.706C591.466,316.031,586.705,320.003,582.042,320.003z"/>
		</g>
		<g>
			<path d="M535.468,378.05c-0.23,0-0.438-0.16-0.488-0.393c-0.646-2.968-1.306-5.82-1.912-8.44
				c-1.224-5.285-2.19-9.46-2.446-11.952c-0.028-0.275,0.171-0.52,0.445-0.549c0.271-0.032,0.521,0.171,0.549,0.445
				c0.251,2.431,1.259,6.786,2.426,11.83c0.607,2.623,1.269,5.479,1.915,8.452c0.058,0.27-0.112,0.536-0.382,0.595
				C535.538,378.046,535.503,378.05,535.468,378.05z"/>
		</g>
		<g>
			<path d="M624.999,388.794c-0.203,0-0.395-0.125-0.469-0.327c-2.203-5.979-6.938-14.782-10.071-20.606
				c-0.65-1.21-1.221-2.271-1.67-3.123c-0.129-0.245-0.035-0.547,0.209-0.676c0.246-0.127,0.547-0.036,0.676,0.21
				c0.448,0.85,1.018,1.908,1.666,3.115c3.146,5.849,7.901,14.689,10.128,20.734c0.096,0.259-0.037,0.547-0.296,0.642
				C625.115,388.784,625.057,388.794,624.999,388.794z"/>
		</g>
		<g>
			<path d="M440.774,345.647c-0.121,0-0.242-0.044-0.338-0.132c-2.174-1.994-4.499-6.316-5.005-8.257
				c-0.07-0.267,0.09-0.54,0.358-0.609c0.268-0.075,0.54,0.09,0.609,0.357c0.466,1.783,2.699,5.924,4.714,7.772
				c0.203,0.186,0.217,0.503,0.03,0.706C441.044,345.593,440.909,345.647,440.774,345.647z"/>
		</g>
		<g>
			<path d="M449.302,346.671c-0.078,0-0.157-0.019-0.23-0.057c-4.239-2.205-5.732-7.131-6.45-9.498l-0.105-0.349
				c-0.081-0.264,0.066-0.543,0.331-0.624c0.262-0.082,0.544,0.066,0.624,0.331l0.107,0.352c0.678,2.236,2.089,6.891,5.954,8.901
				c0.245,0.127,0.341,0.429,0.213,0.674C449.656,346.573,449.481,346.671,449.302,346.671z"/>
		</g>
		<g>
			<path d="M460.266,345.865c-1.003,0-1.931-0.204-2.779-0.611c-2.027-0.974-3.493-2.996-4.482-6.183
				c-0.082-0.264,0.065-0.544,0.329-0.626c0.268-0.083,0.545,0.066,0.626,0.329c0.902,2.906,2.197,4.731,3.96,5.578
				c1.536,0.737,3.423,0.678,5.612-0.183c0.255-0.101,0.547,0.026,0.648,0.283c0.101,0.257-0.026,0.547-0.283,0.648
				C462.6,345.61,461.387,345.865,460.266,345.865z"/>
		</g>
		<g>
			<path d="M461.325,341.47c-0.183,0-0.359-0.102-0.447-0.276c-0.039-0.078-0.958-1.923-1.644-3.805
				c-0.095-0.259,0.039-0.546,0.299-0.641c0.262-0.095,0.546,0.039,0.641,0.299c0.666,1.828,1.59,3.681,1.599,3.699
				c0.123,0.247,0.023,0.548-0.224,0.671C461.477,341.453,461.4,341.47,461.325,341.47z"/>
		</g>
		<g>
			<path d="M453.309,346.842c-0.233,0-0.441-0.164-0.489-0.402c-0.055-0.271,0.121-0.534,0.393-0.588
				c0.946-0.189,2.622-1.464,3.189-1.939c0.211-0.179,0.526-0.15,0.704,0.061c0.178,0.211,0.15,0.526-0.061,0.704
				c-0.229,0.191-2.27,1.881-3.636,2.154C453.375,346.839,453.342,346.842,453.309,346.842z"/>
		</g>
	</g>
	<g>
		<circle style="fill:#AAD5CE;" cx="292.749" cy="263.63" r="34.108"/>
		<path style="fill:#5FB0A2;" d="M321.743,245.668c-6.016-9.691-16.749-16.146-28.993-16.146v34.108
			C292.749,263.63,312.089,253.176,321.743,245.668z"/>
		<path style="fill:#151748;" d="M292.749,263.63l33.695,5.305c0.271-1.729,0.413-3.5,0.413-5.305
			c0-7.128-2.189-13.743-5.929-19.216C311.13,251.148,292.749,263.63,292.749,263.63z"/>
	</g>
	<g>
		<path style="fill:#151748;" d="M165.035,217.663c-2.94-7.232-14.702-20.827-32.668-13.017
			c-17.966,7.811-18.782,22.708-24.99,41.797c-6.207,19.09-16.335,39.049-19.438,48.883c-3.103,9.834-1.469,25.743,14.048,22.85
			c-0.653,12.728,18.491,14.973,26.706,10.124c13.965-8.242,11.001-23.149,11.001-23.149c6.698,2.749,25.6-3.79,19.2-23.243
			c-9.248-28.108-12.342-58.612,2.133-58.612C170.581,216.136,165.035,217.663,165.035,217.663z"/>
		<path style="fill:#5FB0A2;" d="M169.75,218.576c-2.499-2.721-6.247-4.812-9.372-0.146c-2.716,4.057-3.904,9.041,1.408,10.109
			C165.27,229.24,171,223.436,169.75,218.576z"/>
		<path style="fill:#FF7E7D;" d="M173.691,302.531c0.682-3.069,2.921-18.947,2.921-18.947l8.528-12.621
			c-9.338-9.805,4.604-25.409,12.107-12.619c3.41-0.853,2.729-27.457,8.015-31.379c5.287-3.922,21.148-2.729,21.148-2.729
			c4.264,5.116,5.628,12.449,4.604,20.635c-1.023,8.186-2.559,10.574,1.364,14.496c3.923,3.922,7.333,6.822,1.193,11.256
			c-3.752,2.558-3.922,3.58-4.604,8.355c-0.683,4.775-1.194,10.233-9.21,12.279c-8.015,2.047-14.496,1.534-16.371,1.193
			c-1.194-0.17-3.069,8.869-3.922,13.643C198.612,310.869,173.691,302.531,173.691,302.531z"/>
		<path style="fill:#FF7E7D;" d="M268.191,322.296c4.945-5.457,8.186-11.597,15.178-12.62c6.992-1.023,11.768-1.364,15.349-2.388
			c3.581-1.023,4.264-2.389,6.311,0c1.022-6.992,4.435-9.892,5.628-5.116c2.558-4.945,6.138-4.433,5.285-0.17
			c3.924-3.752,6.993-2.897,5.799,1.024c-1.194,3.921-4.094,11.253-9.38,13.471c-5.286,2.218-17.054-0.513-21.999,4.945
			c-4.945,5.458-10.232,12.961-10.232,12.961L268.191,322.296z"/>
		<g>
			<path d="M293.856,315.505c-0.252,0-0.469-0.19-0.496-0.446c-0.029-0.275,0.169-0.521,0.444-0.551
				c3.836-0.411,9.55-2.254,10.505-3.738c1.041-1.618,0.997-2.854-0.129-3.674c-0.224-0.162-0.273-0.475-0.11-0.698
				c0.161-0.224,0.474-0.273,0.698-0.11c0.919,0.669,2.192,2.21,0.382,5.023c-1.354,2.107-8.037,3.849-11.239,4.192
				C293.892,315.504,293.874,315.505,293.856,315.505z"/>
		</g>
		<g>
			<path d="M304.686,311.881c-0.276,0-0.5-0.224-0.5-0.5c0-0.276,0.224-0.5,0.5-0.5c2.038,0,4.217-0.369,6.345-3.05
				c0.964-1.214,1.742-2.302,2.43-3.261c0.953-1.331,1.706-2.382,2.481-3.105c0.202-0.188,0.518-0.178,0.707,0.024
				c0.188,0.201,0.177,0.518-0.024,0.706c-0.703,0.656-1.43,1.672-2.351,2.957c-0.694,0.969-1.48,2.067-2.459,3.3
				C309.415,311.474,306.865,311.881,304.686,311.881z"/>
		</g>
		<g>
			<path d="M307.158,311.199c-0.098,0-0.196-0.028-0.283-0.088c-0.228-0.156-0.285-0.468-0.129-0.695
				c0.315-0.458,0.752-1.68,1.216-2.973c0.853-2.381,1.914-5.343,3.262-6.804c0.187-0.204,0.504-0.216,0.707-0.028
				c0.203,0.187,0.216,0.503,0.029,0.706c-1.211,1.313-2.234,4.168-3.056,6.463c-0.528,1.474-0.945,2.637-1.333,3.202
				C307.474,311.123,307.317,311.199,307.158,311.199z"/>
		</g>
		<path style="fill:#7967CC;" d="M255.486,323.83c2.686-3.069,5.5-7.674,8.953-4.732c3.453,2.942,13.43,9.594,15.732,11.384
			c2.302,1.791,5.116,2.813,2.302,6.779c-2.813,3.965-29.29,38.499-40.929,49.882c-11.64,11.384-21.872,13.559-38.243-4.988
			c-3.198,6.907-13.814,11-15.605,18.291c-1.791,7.29-1.363,29.972-1.363,29.972l-62.759-0.342c0,0,11.994-47.353,17.366-61.294
			c5.372-13.941,7.75-27,19.5-46.75c4.936-8.296,9.192-11.134,11.75-21.75c0.384-2.302,0.553-4.396,3.75-3.5
			c3.197,0.895,22.116,6.201,24.035,7.225c1.918,1.022-0.64,5.627-3.326,15.731c8.314,6.651,18.29,20.593,23.278,27.116
			c4.988,6.523,9.721,10.615,14.069,5.756C238.347,347.748,255.486,323.83,255.486,323.83z"/>
		<g>
			<path d="M203.941,383.166c-0.13,0-0.26-0.05-0.357-0.15c-5.482-5.608-24.052-25.968-26.77-29.461
				c-0.169-0.218-0.13-0.531,0.087-0.701c0.219-0.171,0.532-0.13,0.702,0.088c2.706,3.478,21.225,23.778,26.695,29.375
				c0.193,0.197,0.189,0.514-0.008,0.707C204.193,383.118,204.067,383.166,203.941,383.166z"/>
		</g>
		<g>
			<path d="M197.801,321.261c-0.117,0-0.234-0.04-0.329-0.123c-3.979-3.465-9.536-4.865-11.183-4.865c-0.276,0-0.5-0.224-0.5-0.5
				c0-0.276,0.224-0.5,0.5-0.5c2.017,0,7.744,1.543,11.84,5.111c0.208,0.182,0.23,0.497,0.048,0.705
				C198.08,321.202,197.94,321.261,197.801,321.261z"/>
		</g>
		<path style="fill:#151748;" d="M176.825,283.925c2.389-0.17,4.733-2.9,8.315-12.962c-3.412-5.285-2.389-11.767,2.216-15.348
			c4.604-3.582,7.845,0.172,10.232,4.435c2.388,4.263,3.923,4.775,5.97,3.581c2.046-1.194,7.954-9.853,1.133-28.1
			c-1.109-3.241,1.253-6.35,6.711-5.838c5.458,0.512,11.427,0.513,16.031-3.922c1.363-2.047-1.617-7.615-12.242-12.365
			c-8.146-3.642-34.194-7.688-48.98,7.761c-10.21,10.667-11.859,20.55-11.543,27.334
			C155.167,259.251,163.524,276.223,176.825,283.925z"/>
		<g>
			<path d="M190.508,273.816c-3.044,0-5.533-1.549-7.011-4.505c-0.124-0.247-0.023-0.547,0.224-0.671s0.547-0.023,0.671,0.224
				c1.879,3.758,5.659,4.911,10.107,3.086c0.254-0.103,0.547,0.018,0.652,0.273c0.104,0.256-0.018,0.548-0.274,0.652
				C193.338,273.507,191.868,273.816,190.508,273.816z"/>
		</g>
		<g>
			<path d="M228.969,279.478c-0.021,0-0.044-0.001-0.066-0.004c-2.669-0.352-5.059-3.646-6.244-6.756
				c-0.098-0.258,0.031-0.547,0.289-0.645c0.258-0.101,0.547,0.029,0.646,0.289c1.044,2.74,3.192,5.824,5.439,6.119
				c0.274,0.036,0.467,0.287,0.431,0.562C229.431,279.295,229.216,279.478,228.969,279.478z"/>
		</g>
		<g>
			<path d="M204.453,293.25c-0.019,0-0.038-0.001-0.058-0.003c-3.563-0.411-8.477-3.076-10.228-4.452
				c-0.217-0.171-0.255-0.485-0.084-0.702c0.171-0.218,0.484-0.254,0.702-0.085c1.624,1.277,6.396,3.861,9.725,4.245
				c0.274,0.032,0.471,0.28,0.439,0.555C204.92,293.063,204.704,293.25,204.453,293.25z"/>
		</g>
		<g>
			<path d="M217.882,246.054c-0.141,0-0.281-0.059-0.379-0.174c-0.18-0.21-0.156-0.525,0.054-0.705
				c0.976-0.837,4.559-3.53,9.581-3.061c0.275,0.026,0.477,0.27,0.452,0.544c-0.026,0.275-0.274,0.474-0.545,0.452
				c-4.638-0.435-7.936,2.052-8.837,2.824C218.114,246.014,217.998,246.054,217.882,246.054z"/>
		</g>
		<g>
			<path d="M222.104,255.519c-0.143,0-0.286-0.062-0.385-0.18c-0.177-0.212-0.148-0.527,0.064-0.704
				c0.593-0.494,1.805-2.046,2.222-2.603c0.165-0.221,0.479-0.266,0.7-0.101c0.221,0.166,0.266,0.48,0.1,0.7
				c-0.064,0.086-1.578,2.102-2.381,2.77C222.33,255.48,222.216,255.519,222.104,255.519z"/>
		</g>
		<path d="M222.488,254.337c-1.37-0.125-3.496,5.287-1.45,5.628C223.084,260.306,224.365,254.508,222.488,254.337z"/>
	</g>
	<g>
		<path style="fill:#F1EFEF;" d="M483.958,315.23c0,6.781-5.498,12.278-12.279,12.278h-49.455c-6.781,0-12.279-5.497-12.279-12.278
			v-50.139c0-6.78,5.498-12.278,12.279-12.278h49.455c6.781,0,12.279,5.498,12.279,12.278V315.23z"/>
		<path style="fill:#AAD5CE;" d="M435.048,310.268c0,3.306-2.68,5.986-5.986,5.986l0,0c-3.305,0-5.986-2.681-5.986-5.986v-25.59
			c0-3.306,2.682-5.986,5.986-5.986l0,0c3.307,0,5.986,2.681,5.986,5.986V310.268z"/>
		<path style="fill:#54478D;" d="M451.78,310.268c0,3.306-2.682,5.986-5.988,5.986l0,0c-3.305,0-5.986-2.681-5.986-5.986v-35.184
			c0-3.307,2.682-5.986,5.986-5.986l0,0c3.307,0,5.988,2.68,5.988,5.986V310.268z"/>
		<path style="fill:#151748;" d="M468.511,310.268c0,3.306-2.682,5.986-5.986,5.986l0,0c-3.307,0-5.986-2.681-5.986-5.986v-43.879
			c0-3.305,2.68-5.986,5.986-5.986l0,0c3.305,0,5.986,2.682,5.986,5.986V310.268z"/>
	</g>
	<g>
		<path style="fill:#151748;" d="M687.181,431.761H94.941c-0.552,0-1-0.447-1-1c0-0.553,0.448-1,1-1h592.24c0.553,0,1,0.447,1,1
			C688.181,431.314,687.733,431.761,687.181,431.761z"/>
	</g>
</g>
</svg>
